<svg id="visual" viewBox="0 0 900 600" width="900" height="600" xmlns="http://www.w3.org/2000/svg" xmlns:xlink="http://www.w3.org/1999/xlink" version="1.1"><rect width="900" height="600" fill="#FFFFFF"></rect><g><g transform="translate(559 440)"><path d="M0 -147L127.3 -73.5L127.3 73.5L0 147L-127.3 73.5L-127.3 -73.5Z" fill="none" stroke="#FF0066" stroke-width="2"></path></g><g transform="translate(184 368)"><path d="M0 -129L111.7 -64.5L111.7 64.5L0 129L-111.7 64.5L-111.7 -64.5Z" fill="none" stroke="#FF0066" stroke-width="2"></path></g><g transform="translate(732 165)"><path d="M0 -118L102.2 -59L102.2 59L0 118L-102.2 59L-102.2 -59Z" stroke="#FF0066" fill="none" stroke-width="2"></path></g><g transform="translate(424 173)"><path d="M0 -131L113.4 -65.5L113.4 65.5L0 131L-113.4 65.5L-113.4 -65.5Z" stroke="#FF0066" fill="none" stroke-width="2"></path></g></g></svg>